<svg id="Layer_1" data-name="Layer 1" xmlns="http://www.w3.org/2000/svg" viewBox="0 0 95.89 35"><defs><style>.cls-1{fill:#fff;}</style></defs><title>Site Boomfit</title><path class="cls-1" d="M12.87,12q4.62,0,6.77,2.58c1.43,1.71,1.88,4,1.37,6.8l-.83,4.76c-1,5.5-4.86,8.42-11.18,8.42H1.18c-1,0-1.34-.35-1.11-1.33L3.56,13.3c.22-1,.58-1.34,1.59-1.34Zm1.91,9c.41-2.29-.61-3.44-3.08-3.44H9.12L7.09,29h2.6q3.68,0,4.3-3.43Z"/><path class="cls-1" d="M32.73,17.52c.92,0,1.18.32,1,1.21l-.48,2.7c-.16.92-.51,1.24-1.43,1.24H30.63a6.55,6.55,0,0,0-1.49.13c-.1,0-.16.06-.19.19L27.14,33.32c-.16.89-.54,1.2-1.46,1.2H22.21c-.92,0-1.17-.31-1-1.2l2.28-12.87a2,2,0,0,1,1.66-1.91,22.23,22.23,0,0,1,6.6-1Z"/><path class="cls-1" d="M40.13,18c.92,0,1.18.32,1,1.21L38.67,33.32c-.16.89-.54,1.2-1.46,1.2H33.75c-.93,0-1.18-.31-1-1.2l2.48-14.11A1.24,1.24,0,0,1,36.67,18Zm.19-6.42c1.81,0,2.29.57,1.94,2.35l-.06.35c-.35,1.78-1,2.35-2.77,2.35H37.84c-1.81,0-2.28-.57-1.93-2.35l0-.35c.35-1.78,1-2.35,2.79-2.35Z"/><path class="cls-1" d="M49.92,11c.92,0,1.17.29,1,1.21l-1,5.46a17.38,17.38,0,0,1,2.16-.19c4.74,0,6.71,2.74,5.91,7.22l-.6,3.43c-.8,4.67-3.72,6.83-8.93,6.83a14.28,14.28,0,0,1-6.1-1.08c-1-.51-1.11-.76-.89-1.88L45,12.25c.16-.92.54-1.21,1.46-1.21Zm2.32,13.13c.16-1.05-.35-1.56-1.53-1.56a5.32,5.32,0,0,0-1.65.22l-1.18,6.7a.19.19,0,0,0,.07.16,4.17,4.17,0,0,0,1.3.16,2,2,0,0,0,2.29-1.75Z"/><path class="cls-1" d="M64.66,33.32c-.16.89-.54,1.2-1.46,1.2H59.73c-.92,0-1.17-.31-1-1.2l3.71-21.1A1.25,1.25,0,0,1,63.9,11h3.46c.92,0,1.18.32,1,1.21Z"/><path class="cls-1" d="M69,24.23c.76-4.29,4-6.71,9-6.71,4.74,0,7.41,2.1,6.9,5.88-.48,2.93-3,4.61-7.09,4.61a35.93,35.93,0,0,1-3.59-.19l-.12.67c-.23,1.36.34,2,1.71,2a3.7,3.7,0,0,0,2.77-1.14c.6-.64.92-.8,1.84-.32l2.07,1.05c.76.41.85,1,.28,1.84C81.28,34,78.7,35,75.05,35c-5.43,0-7.5-3-6.71-7.47Zm8.42-2.51a2.25,2.25,0,0,0-2.42,2l-.09.35a19.82,19.82,0,0,0,2.19.16c1.24,0,1.94-.39,2.07-1.18S78.67,21.72,77.37,21.72Z"/><polygon class="cls-1" points="89.44 0 89.82 1.18 91.06 1.18 90.06 1.91 90.44 3.09 89.44 2.36 88.44 3.09 88.82 1.91 87.81 1.18 89.06 1.18 89.44 0"/><polygon class="cls-1" points="93.5 2.56 93.77 3.38 94.62 3.38 93.93 3.88 94.19 4.68 93.5 4.18 92.81 4.68 93.08 3.88 92.39 3.38 93.24 3.38 93.5 2.56"/><polygon class="cls-1" points="85.45 2.56 85.71 3.38 86.56 3.38 85.88 3.88 86.14 4.68 85.45 4.18 84.76 4.68 85.02 3.88 84.34 3.38 85.19 3.38 85.45 2.56"/><path class="cls-1" d="M95.85,7.18a9.89,9.89,0,0,1-6.41-3,9.9,9.9,0,0,1-6.42,3A15.5,15.5,0,0,0,83.79,13a10.52,10.52,0,0,0,5.65,6.63A10.52,10.52,0,0,0,95.09,13,15.24,15.24,0,0,0,95.85,7.18Zm-7,3.46a1.46,1.46,0,0,0-.38.27,1.38,1.38,0,0,0,0,2,1.22,1.22,0,0,0,.38.26v1.63a2.94,2.94,0,0,1-1.48-5A3,3,0,0,1,88.83,9ZM91.51,14a2.92,2.92,0,0,1-1.48.8V13.14a1.22,1.22,0,0,0,.38-.26,1.4,1.4,0,0,0,0-2,1.46,1.46,0,0,0-.38-.27V9a2.94,2.94,0,0,1,1.48,5Z"/></svg>