<svg width="72" height="72" viewBox="0 0 72 72" fill="none" xmlns="http://www.w3.org/2000/svg">
<path d="M36 72C55.8823 72 72 55.8823 72 36C72 16.1177 55.8823 0 36 0C16.1177 0 0 16.1177 0 36C0 55.8823 16.1177 72 36 72Z" fill="url(#paint0_linear)"/>
<path fill-rule="evenodd" clip-rule="evenodd" d="M24.982 36.1181C23.66 35.3781 22.138 34.5261 20.436 33.5721C19.15 32.8521 18.802 31.2861 19.176 30.3521C19.552 29.4201 20.428 28.7061 21.52 28.4401C28.386 26.7761 40.934 23.7321 47.636 22.1081C48.552 21.8861 49.632 21.9901 50.304 22.5761C51.184 23.3441 51.016 24.5301 50.762 25.3301C48.9 31.1781 45.538 41.7461 43.63 47.7401C43.326 48.6941 42.566 49.5541 41.516 49.8821C39.936 50.3601 38.706 49.3761 38.066 48.5621C36.816 46.9701 35.662 45.4961 34.664 44.2161L28.43 48.9221C27.778 49.4141 26.904 49.4941 26.174 49.1301C25.442 48.7661 24.982 48.0201 24.982 47.2041V36.1181ZM31.506 39.3301C31.736 38.8301 32.07 38.3821 32.488 38.0201C34.186 36.5481 38.922 32.4381 42.028 29.7441C42.192 29.6021 42.222 29.3601 42.1 29.1801C41.976 29.0021 41.74 28.9441 41.548 29.0461C37.686 31.1121 31.58 34.3781 29.352 35.5721C28.824 35.8541 28.484 36.3921 28.456 36.9901C28.374 38.6781 28.204 42.2181 28.09 44.6101C28.078 44.8361 28.228 45.0361 28.448 45.0881C28.666 45.1421 28.89 45.0321 28.984 44.8281C29.816 43.0181 30.944 40.5581 31.506 39.3301Z" fill="white"/>
<defs>
<linearGradient id="paint0_linear" x1="0" y1="0" x2="71.6976" y2="71.6976" gradientUnits="userSpaceOnUse">
<stop stop-color="#33D35E"/>
<stop offset="1" stop-color="#2AB6D9"/>
</linearGradient>
</defs>
</svg>
