<svg width="406" height="76" viewBox="0 0 406 76" fill="none" xmlns="http://www.w3.org/2000/svg">
<path d="M381 75C394.807 75 406 63.8071 406 50C406 36.1929 394.807 25 381 25C367.193 25 356 36.1929 356 50C356 63.8071 367.193 75 381 75Z" fill="url(#paint0_linear)"/>
<path fill-rule="evenodd" clip-rule="evenodd" d="M373.349 50.0822C372.431 49.5683 371.374 48.9766 370.192 48.3141C369.299 47.8141 369.057 46.7266 369.317 46.078C369.578 45.4308 370.186 44.9349 370.945 44.7502C375.713 43.5947 384.426 41.4808 389.081 40.353C389.717 40.1988 390.467 40.271 390.933 40.678C391.545 41.2113 391.428 42.0349 391.251 42.5905C389.958 46.6516 387.624 53.9905 386.299 58.153C386.088 58.8155 385.56 59.4127 384.831 59.6405C383.733 59.9724 382.879 59.2891 382.435 58.7238C381.567 57.6183 380.765 56.5947 380.072 55.7058L375.743 58.9738C375.29 59.3155 374.683 59.371 374.176 59.1183C373.668 58.8655 373.349 58.3474 373.349 57.7808V50.0822V50.0822ZM377.879 52.3127C378.039 51.9655 378.271 51.6544 378.561 51.403C379.74 50.3808 383.029 47.5266 385.186 45.6558C385.3 45.5572 385.321 45.3891 385.236 45.2641C385.15 45.1405 384.986 45.1002 384.853 45.171C382.171 46.6058 377.931 48.8738 376.383 49.703C376.017 49.8988 375.781 50.2724 375.761 50.6877C375.704 51.8599 375.586 54.3183 375.507 55.9794C375.499 56.1363 375.603 56.2752 375.756 56.3113C375.907 56.3488 376.063 56.2724 376.128 56.1308C376.706 54.8738 377.489 53.1655 377.879 52.3127Z" fill="white"/>
<path d="M19.0918 9.375V22.168H28.9551V29.1504H19.0918V61.9141C19.0918 64.0299 19.5312 65.625 20.4102 66.6992C21.2891 67.7409 22.7865 68.2617 24.9023 68.2617C25.944 68.2617 27.3763 68.0664 29.1992 67.6758V75C26.8229 75.651 24.5117 75.9766 22.2656 75.9766C18.2292 75.9766 15.1855 74.7559 13.1348 72.3145C11.084 69.873 10.0586 66.4062 10.0586 61.9141V29.1504H0.439453V22.168H10.0586V9.375H19.0918ZM49.3652 75H40.332V22.168H49.3652V75ZM39.5996 8.1543C39.5996 6.68945 40.0391 5.45247 40.918 4.44336C41.8294 3.43424 43.1641 2.92969 44.9219 2.92969C46.6797 2.92969 48.0143 3.43424 48.9258 4.44336C49.8372 5.45247 50.293 6.68945 50.293 8.1543C50.293 9.61914 49.8372 10.8398 48.9258 11.8164C48.0143 12.793 46.6797 13.2812 44.9219 13.2812C43.1641 13.2812 41.8294 12.793 40.918 11.8164C40.0391 10.8398 39.5996 9.61914 39.5996 8.1543ZM78.6133 50.5371L72.9492 56.4453V75H63.916V0H72.9492V45.3613L77.7832 39.5508L94.2383 22.168H105.225L84.668 44.2383L107.617 75H97.0215L78.6133 50.5371ZM124.365 75H115.332V22.168H124.365V75ZM114.6 8.1543C114.6 6.68945 115.039 5.45247 115.918 4.44336C116.829 3.43424 118.164 2.92969 119.922 2.92969C121.68 2.92969 123.014 3.43424 123.926 4.44336C124.837 5.45247 125.293 6.68945 125.293 8.1543C125.293 9.61914 124.837 10.8398 123.926 11.8164C123.014 12.793 121.68 13.2812 119.922 13.2812C118.164 13.2812 116.829 12.793 115.918 11.8164C115.039 10.8398 114.6 9.61914 114.6 8.1543Z" fill="#2D314D"/>
<path d="M161.23 43.3105C153.19 40.9993 147.331 38.1673 143.652 34.8145C140.007 31.429 138.184 27.2624 138.184 22.3145C138.184 16.7155 140.413 12.0931 144.873 8.44727C149.365 4.76888 155.192 2.92969 162.354 2.92969C167.236 2.92969 171.582 3.8737 175.391 5.76172C179.232 7.64974 182.194 10.2539 184.277 13.5742C186.393 16.8945 187.451 20.5241 187.451 24.4629H178.027C178.027 20.166 176.66 16.7969 173.926 14.3555C171.191 11.8815 167.334 10.6445 162.354 10.6445C157.731 10.6445 154.118 11.6699 151.514 13.7207C148.942 15.7389 147.656 18.5547 147.656 22.168C147.656 25.0651 148.877 27.5228 151.318 29.541C153.792 31.5267 157.975 33.3496 163.867 35.0098C169.792 36.6699 174.414 38.5091 177.734 40.5273C181.087 42.513 183.561 44.8405 185.156 47.5098C186.784 50.179 187.598 53.3203 187.598 56.9336C187.598 62.6953 185.352 67.3177 180.859 70.8008C176.367 74.2513 170.361 75.9766 162.842 75.9766C157.959 75.9766 153.402 75.0488 149.17 73.1934C144.938 71.3053 141.667 68.7337 139.355 65.4785C137.077 62.2233 135.938 58.5286 135.938 54.3945H145.361C145.361 58.6914 146.94 62.0931 150.098 64.5996C153.288 67.0736 157.536 68.3105 162.842 68.3105C167.79 68.3105 171.582 67.3014 174.219 65.2832C176.855 63.265 178.174 60.5143 178.174 57.0312C178.174 53.5482 176.953 50.8626 174.512 48.9746C172.07 47.054 167.643 45.166 161.23 43.3105ZM211.768 3.90625L235.01 61.9141L258.252 3.90625H270.41V75H261.035V47.3145L261.914 17.4316L238.574 75H231.396L208.105 17.5781L209.033 47.3145V75H199.658V3.90625H211.768ZM307.91 43.3105C299.87 40.9993 294.01 38.1673 290.332 34.8145C286.686 31.429 284.863 27.2624 284.863 22.3145C284.863 16.7155 287.093 12.0931 291.553 8.44727C296.045 4.76888 301.872 2.92969 309.033 2.92969C313.916 2.92969 318.262 3.8737 322.07 5.76172C325.911 7.64974 328.874 10.2539 330.957 13.5742C333.073 16.8945 334.131 20.5241 334.131 24.4629H324.707C324.707 20.166 323.34 16.7969 320.605 14.3555C317.871 11.8815 314.014 10.6445 309.033 10.6445C304.411 10.6445 300.798 11.6699 298.193 13.7207C295.622 15.7389 294.336 18.5547 294.336 22.168C294.336 25.0651 295.557 27.5228 297.998 29.541C300.472 31.5267 304.655 33.3496 310.547 35.0098C316.471 36.6699 321.094 38.5091 324.414 40.5273C327.767 42.513 330.241 44.8405 331.836 47.5098C333.464 50.179 334.277 53.3203 334.277 56.9336C334.277 62.6953 332.031 67.3177 327.539 70.8008C323.047 74.2513 317.041 75.9766 309.521 75.9766C304.639 75.9766 300.081 75.0488 295.85 73.1934C291.618 71.3053 288.346 68.7337 286.035 65.4785C283.757 62.2233 282.617 58.5286 282.617 54.3945H292.041C292.041 58.6914 293.62 62.0931 296.777 64.5996C299.967 67.0736 304.215 68.3105 309.521 68.3105C314.469 68.3105 318.262 67.3014 320.898 65.2832C323.535 63.265 324.854 60.5143 324.854 57.0312C324.854 53.5482 323.633 50.8626 321.191 48.9746C318.75 47.054 314.323 45.166 307.91 43.3105Z" fill="url(#paint1_linear)"/>
<defs>
<linearGradient id="paint0_linear" x1="356" y1="25" x2="405.79" y2="74.79" gradientUnits="userSpaceOnUse">
<stop stop-color="#33D35E"/>
<stop offset="1" stop-color="#2AB6D9"/>
</linearGradient>
<linearGradient id="paint1_linear" x1="169.5" y1="31" x2="169.5" y2="51" gradientUnits="userSpaceOnUse">
<stop stop-color="#33D35E"/>
<stop offset="0.0001" stop-color="#33D35E"/>
<stop offset="1" stop-color="#2AB6D9" stop-opacity="0.2"/>
</linearGradient>
</defs>
</svg>
